<?xml version="1.0" encoding="UTF-8" standalone="no"?>
<svg
   xmlns:dc="http://purl.org/dc/elements/1.1/"
   xmlns:cc="http://creativecommons.org/ns#"
   xmlns:rdf="http://www.w3.org/1999/02/22-rdf-syntax-ns#"
   xmlns:svg="http://www.w3.org/2000/svg"
   xmlns="http://www.w3.org/2000/svg"
   xmlns:xlink="http://www.w3.org/1999/xlink"
   xmlns:sodipodi="http://sodipodi.sourceforge.net/DTD/sodipodi-0.dtd"
   xmlns:inkscape="http://www.inkscape.org/namespaces/inkscape"
   width="46.302082mm"
   height="40.909485mm"
   viewBox="0 0 46.302082 40.909485"
   version="1.1"
   id="svg4585"
   inkscape:version="1.0.2 (e86c870879, 2021-01-15)"
   sodipodi:docname="30log.svg">
  <defs
     id="defs4579">
    <linearGradient
       inkscape:collect="always"
       xlink:href="#linearGradient4275"
       id="linearGradient4326"
       gradientUnits="userSpaceOnUse"
       x1="188.80513"
       y1="863.19287"
       x2="394.22278"
       y2="607.54779"
       gradientTransform="matrix(0.20541614,0,0,0.20541614,-57.963094,64.023794)" />
    <linearGradient
       inkscape:collect="always"
       id="linearGradient4275">
      <stop
         style="stop-color:#0c30ff;stop-opacity:1"
         offset="0"
         id="stop4271" />
      <stop
         style="stop-color:#1889ff;stop-opacity:1"
         offset="1"
         id="stop4273" />
    </linearGradient>
  </defs>
  <sodipodi:namedview
     id="base"
     pagecolor="#ffffff"
     bordercolor="#666666"
     borderopacity="1.0"
     inkscape:pageopacity="0.0"
     inkscape:pageshadow="2"
     inkscape:zoom="0.7"
     inkscape:cx="212.85715"
     inkscape:cy="132.96222"
     inkscape:document-units="mm"
     inkscape:current-layer="layer1"
     inkscape:document-rotation="0"
     showgrid="false"
     inkscape:window-width="1369"
     inkscape:window-height="999"
     inkscape:window-x="24"
     inkscape:window-y="22"
     inkscape:window-maximized="0" />
  <metadata
     id="metadata4582">
    <rdf:RDF>
      <cc:Work
         rdf:about="">
        <dc:format>image/svg+xml</dc:format>
        <dc:type
           rdf:resource="http://purl.org/dc/dcmitype/StillImage" />
        <dc:title></dc:title>
      </cc:Work>
    </rdf:RDF>
  </metadata>
  <g
     inkscape:label="Capa 1"
     inkscape:groupmode="layer"
     id="layer1"
     transform="translate(33.59913,-200.20301)">
    <path
       id="path4324"
       style="fill:url(#linearGradient4326);fill-opacity:1;stroke:none;stroke-width:2.88812;stroke-linejoin:round;stroke-miterlimit:4;stroke-dasharray:none;stroke-opacity:1;paint-order:markers stroke fill"
       d="m 7.8323436,200.20301 c -2.6899612,1e-5 -4.8706064,2.18065 -4.8706085,4.87061 4.8e-6,2.68996 2.1806473,4.87061 4.8706085,4.87061 2.6899614,0 4.8706054,-2.18065 4.8706094,-4.87061 -2e-6,-2.68996 -2.180646,-4.87061 -4.8706094,-4.87061 z m -41.1105106,4.43451 -0.303709,10.5372 4.204208,0.0216 -2.557671,6.9693 c 9.951827,-0.49513 8.22668,13.00779 -1.663791,8.13922 l 0.121966,9.86159 c 15.637238,5.18422 25.2473967,-12.28272 12.413635,-19.77893 l 6.212635,-15.61966 z m 27.5494361,0.0244 c -6.8379491,0.004 -12.3790691,5.54841 -12.3791331,12.38636 -1.56e-4,6.84108 5.545675,12.38692 12.3867551,12.38676 6.8409234,-7e-5 12.3865076,-5.54584 12.386352,-12.38676 -6.43e-5,-6.84077 -5.5455855,-12.38629 -12.386352,-12.38636 z m 4.0621833,3.78737 c 2.6899626,0 4.8706057,2.18065 4.8706084,4.87061 -2.7e-6,2.68996 -2.1806458,4.87061 -4.8706084,4.87061 -2.6899631,0 -4.8706075,-2.18065 -4.8706089,-4.87061 1.4e-6,-2.68996 2.1806458,-4.87061 4.8706089,-4.87061 z m -2.0517534,22.62507 c -1.0013361,0 -1.7594222,0.39629 -2.27362,1.18835 -0.5103338,0.79207 -0.7654975,2.37279 -0.7654975,3.92057 0,1.54372 0.2551637,2.71163 0.7654975,3.5037 0.5141978,0.79208 1.2722839,1.18797 2.27362,1.18797 1.0051997,0 1.7628849,-0.39589 2.2732174,-1.18797 0.51419904,-0.79207 0.77111357,-1.95998 0.77111357,-3.5037 0,-1.54778 -0.25691453,-3.1285 -0.77111357,-3.92057 -0.5103325,-0.79206 -1.2680177,-1.18835 -2.2732174,-1.18835 z m 7.851952,0 c -1.1637135,0 -2.0546339,0.40222 -2.6732197,1.20641 -0.6147186,0.8042 -0.92236569,2.37899 -0.92236569,3.90251 0,1.49927 0.30549437,2.65689 0.91634849,3.47321 0.6108522,0.81227 1.4770078,1.21846 2.5981918,1.21846 0.452341,0 0.8754611,-0.0748 1.2698093,-0.22428 0.3982154,-0.15357 0.7618467,-0.37782 1.0904717,-0.67281 v -4.14604 H 3.7452848 v 1.5033 h 1.1715154 v 1.72759 c -0.08119,0.0687 -0.1875088,0.12094 -0.3189584,0.15727 -0.1314497,0.0324 -0.2863499,0.0485 -0.4641908,0.0485 -0.5915223,0 -1.0419616,-0.2626 -1.3512541,-0.78796 -0.3092933,-0.52535 -0.4637904,-1.29104 -0.4637904,-2.2973 0,-1.03857 0.1605529,-2.2234 0.4814436,-2.73259 0.3208914,-0.51323 0.8060527,-0.76991 1.4555645,-0.76991 0.3711519,0 0.7113711,0.083 1.0206636,0.24874 0.313155,0.16166 0.5895854,0.4041 0.8292863,0.72739 V 231.6745 C 5.8117373,231.48052 5.4966859,231.333 5.1603291,231.23198 4.8239724,231.12691 4.4816011,231.07431 4.133651,231.07431 Z m -17.270202,0.16368 v 9.46119 h 5.370106 v -1.57592 h -3.659376 v -7.88526 z m 9.41825,1.44273 c 0.4407409,0 0.761447,0.24441 0.9624855,0.73339 0.2010406,0.48494 0.3017043,1.68204 0.3017043,2.76912 0,1.08303 -0.1006637,1.8689 -0.3017043,2.35787 -0.2010385,0.48494 -0.5217446,0.72738 -0.9624855,0.72738 -0.4368768,0 -0.7558306,-0.24244 -0.9568718,-0.72738 -0.2010388,-0.48897 -0.3017052,-1.27484 -0.3017052,-2.35787 0,-1.08708 0.1006664,-2.28418 0.3017052,-2.76912 0.2010412,-0.48898 0.519995,-0.73339 0.9568718,-0.73339 z"
       sodipodi:nodetypes="ssssscccccccccscccsssssssscscscscsscscsccccccccssscsccccscccccccscscscscs" />
  </g>
</svg>
